<?xml version="1.0" encoding="utf-8"?>
<svg version="1.1" width="512px" height="512px" style="shape-rendering:geometricPrecision; text-rendering:geometricPrecision; image-rendering:optimizeQuality; fill-rule:evenodd; clip-rule:evenodd" xmlns="http://www.w3.org/2000/svg">
  <g>
    <path style="opacity: 1;" d="M 511.5,235.5 C 511.5,248.833 511.5,262.167 511.5,275.5C 411.831,275.167 312.164,275.5 212.5,276.5C 197.815,307.51 173.482,320.01 139.5,314C 119.948,307.949 106.281,295.449 98.5,276.5C 65.5067,275.5 32.5067,275.167 -0.5,275.5C -0.5,262.167 -0.5,248.833 -0.5,235.5C 32.5067,235.833 65.5067,235.5 98.5,234.5C 113.185,203.49 137.518,190.99 171.5,197C 191.027,203.024 204.694,215.524 212.5,234.5C 312.164,235.5 411.831,235.833 511.5,235.5 Z M 149.5,236.5 C 167.648,235.148 175.815,243.481 174,261.5C 167.178,275.042 157.011,278.209 143.5,271C 135.602,262.745 134.435,253.579 140,243.5C 142.79,240.535 145.957,238.202 149.5,236.5 Z"/>
  </g>
  <ellipse style="stroke: rgb(0, 0, 0);" cx="155" cy="255" rx="61" ry="61"/>
  <g transform="matrix(-1, 0, 0, -1, 500.991699, 413.068237)">
    <g transform="matrix(1, 0, 0, 1, -10.413544, 85.72789)">
      <path style="opacity: 1;" d="M 511.5,235.5 C 511.5,248.833 511.5,262.167 511.5,275.5C 411.831,275.167 312.164,275.5 212.5,276.5C 197.815,307.51 173.482,320.01 139.5,314C 119.948,307.949 106.281,295.449 98.5,276.5C 65.5067,275.5 32.5067,275.167 -0.5,275.5C -0.5,262.167 -0.5,248.833 -0.5,235.5C 32.5067,235.833 65.5067,235.5 98.5,234.5C 113.185,203.49 137.518,190.99 171.5,197C 191.027,203.024 204.694,215.524 212.5,234.5C 312.164,235.5 411.831,235.833 511.5,235.5 Z M 149.5,236.5 C 167.648,235.148 175.815,243.481 174,261.5C 167.178,275.042 157.011,278.209 143.5,271C 135.602,262.745 134.435,253.579 140,243.5C 142.79,240.535 145.957,238.202 149.5,236.5 Z"/>
    </g>
    <ellipse style="stroke: rgb(0, 0, 0);" cx="144.586" cy="340.728" rx="61" ry="61"/>
  </g>
  <g transform="matrix(-1, 0, 0, -1, 500.418518, 781.357971)">
    <g transform="matrix(1, 0, 0, 1, -10.413544, 85.72789)">
      <path style="opacity: 1;" d="M 511.5,235.5 C 511.5,248.833 511.5,262.167 511.5,275.5C 411.831,275.167 312.164,275.5 212.5,276.5C 197.815,307.51 173.482,320.01 139.5,314C 119.948,307.949 106.281,295.449 98.5,276.5C 65.5067,275.5 32.5067,275.167 -0.5,275.5C -0.5,262.167 -0.5,248.833 -0.5,235.5C 32.5067,235.833 65.5067,235.5 98.5,234.5C 113.185,203.49 137.518,190.99 171.5,197C 191.027,203.024 204.694,215.524 212.5,234.5C 312.164,235.5 411.831,235.833 511.5,235.5 Z M 149.5,236.5 C 167.648,235.148 175.815,243.481 174,261.5C 167.178,275.042 157.011,278.209 143.5,271C 135.602,262.745 134.435,253.579 140,243.5C 142.79,240.535 145.957,238.202 149.5,236.5 Z"/>
    </g>
    <ellipse style="stroke: rgb(0, 0, 0);" cx="144.586" cy="340.728" rx="61" ry="61"/>
  </g>
</svg>